# 3ds Max Wavefront OBJ Exporter v0.97b - (c)2007 guruware
# File Created: 27.04.2015 16:23:54

mtllib beach-concave.mtl

#
# object water_beach_concave_Cube_042_basecolors003
#

v  3.8463 1.0000 2.4393
v  4.0000 1.0000 4.0000
v  4.0000 1.0000 -4.0000
v  3.3910 1.0000 0.9385
v  2.6518 1.0000 -0.4446
v  1.6569 1.0000 -1.6569
v  0.4446 1.0000 -2.6518
v  -0.9385 1.0000 -3.3910
v  -4.0000 1.0000 -4.0000
v  -2.4393 1.0000 -3.8463
v  4.0000 0.0000 4.0000
v  4.0000 0.0000 -4.0000
v  -4.0000 0.0000 -4.0000
v  2.0000 0.0000 4.0000
v  -4.0000 0.0000 -2.0000
v  1.8847 0.0000 2.8295
v  1.5433 0.0000 1.7039
v  0.9888 0.0000 0.6666
v  0.2426 0.0000 -0.2426
v  -0.6666 0.0000 -0.9888
v  -1.7039 0.0000 -1.5433
v  -2.8295 0.0000 -1.8847
# 22 vertices

vn 0.0000 1.0000 -0.0000
vn 1.0000 0.0000 0.0000
vn -0.0000 -0.0000 -1.0000
vn 0.0000 -0.0000 1.0000
vn -1.0000 0.0000 0.0000
vn -0.4468 0.8936 0.0440
vn -0.4386 0.8944 0.0872
vn -0.4132 0.8944 0.1711
vn -0.3718 0.8944 0.2485
vn -0.3162 0.8944 0.3162
vn -0.2485 0.8944 0.3718
vn -0.1711 0.8944 0.4132
vn -0.0872 0.8944 0.4386
vn -0.0440 0.8936 0.4468
# 14 vertex normals

vt 1.0721 1.0551 0.0000
vt 1.1445 1.1450 0.0000
vt 0.7528 0.7009 0.0000
vt 1.0105 0.9622 0.0000
vt 0.9622 0.8699 0.0000
vt 0.9289 0.7817 0.0000
vt 0.9119 0.7009 0.0000
vt 0.9119 0.6308 0.0000
vt 0.9622 0.5325 0.0000
vt 0.9289 0.5739 0.0000
vt 0.8325 0.5949 0.0000
vt 0.8325 0.6298 0.0000
vt 0.9919 0.6298 0.0000
vt 0.9919 0.5949 0.0000
vt 0.9525 0.6304 0.0000
vt 0.9525 0.7720 0.0000
vt 0.9919 0.7720 0.0000
vt 0.9919 0.6304 0.0000
vt 0.5503 0.7360 0.0000
vt 0.5564 0.7818 0.0000
vt 0.5747 0.7360 0.0000
vt 0.3503 0.8507 0.0000
vt 0.4497 0.8395 0.0000
vt 0.3503 0.8283 0.0000
vt 0.7525 0.7016 0.0000
vt 0.6728 0.6298 0.0000
vt 0.8127 0.6301 0.0000
vt 0.7925 0.6657 0.0000
vt 0.8319 0.6298 0.0000
vt 0.9119 0.6301 0.0000
vt 0.8319 0.5597 0.0000
vt 0.9119 0.6658 0.0000
vt 0.7519 0.6308 0.0000
vt 0.7922 0.6128 0.0000
vt 0.7519 0.7720 0.0000
vt 0.8719 0.6835 0.0000
vt 0.6728 0.7720 0.0000
vt 0.8324 0.7009 0.0000
vt 0.7528 0.8431 0.0000
vt 0.7127 0.7012 0.0000
vt 0.8319 0.8431 0.0000
vt 0.8317 0.7012 0.0000
# 42 texture coords

g water_beach_concave_Cube_042_basecolors003
usemtl grass
s off
f 1/1/1 2/2/1 3/3/1 4/4/1 
f 5/5/1 4/4/1 3/3/1 6/6/1 
f 7/7/1 6/6/1 3/3/1 8/8/1 
f 3/3/1 9/9/1 10/10/1 8/8/1 
f 2/11/2 11/12/2 12/13/2 3/14/2 
f 9/15/3 3/16/3 12/17/3 13/18/3 
usemtl sand
f 2/19/4 14/20/4 11/21/4 
f 13/22/5 15/23/5 9/24/5 
s 1
f 2/25/6 1/26/7 16/27/7 14/28/6 
f 1/26/7 4/29/8 17/30/8 16/27/7 
f 4/29/8 5/31/9 18/32/9 17/30/8 
f 5/31/9 6/33/10 19/34/10 18/32/9 
f 6/33/10 7/35/11 20/36/11 19/34/10 
f 7/35/11 8/37/12 21/38/12 20/36/11 
f 8/37/12 10/39/13 22/40/13 21/38/12 
f 10/39/13 9/41/14 15/42/14 22/40/13 
# 14 polygons - 2 triangles

