# 3ds Max Wavefront OBJ Exporter v0.97b - (c)2007 guruware
# File Created: 27.04.2015 20:03:54

mtllib ground_slope.mtl

#
# object Object038
#

v  4.0000 0.0000 4.0000
v  4.0000 0.0000 -4.0000
v  4.0000 1.0000 -4.0000
v  4.0000 1.0000 4.0000
v  -4.0000 0.0000 -4.0000
v  -4.0000 0.0000 4.0000
# 6 vertices

vn 1.0000 0.0000 -0.0000
vn -0.0000 0.0000 -1.0000
vn 0.0000 0.0000 1.0000
vn -0.1240 0.9923 0.0000
vn 0.0000 -1.0000 -0.0000
# 5 vertex normals

vt 0.0554 0.9587 0.0000
vt 0.0482 0.9587 0.0000
vt 0.0482 0.9578 0.0000
vt 0.0554 0.9578 0.0000
vt 0.0507 0.9501 0.0000
vt 0.0507 0.9510 0.0000
vt 0.0435 0.9510 0.0000
vt 0.0178 0.9945 0.0000
vt 0.0178 0.9936 0.0000
vt 0.0250 0.9945 0.0000
vt 0.0250 0.9624 0.0000
vt 0.0250 0.9696 0.0000
vt 0.0178 0.9696 0.0000
vt 0.0178 0.9624 0.0000
vt 0.0163 0.9866 0.0000
vt 0.0091 0.9866 0.0000
vt 0.0091 0.9794 0.0000
vt 0.0163 0.9794 0.0000
# 18 texture coords

g Object038
usemtl palette
s off
f 1/1/1 2/2/1 3/3/1 4/4/1 
f 3/5/2 2/6/2 5/7/2 
f 1/8/3 4/9/3 6/10/3 
f 3/11/4 5/12/4 6/13/4 4/14/4 
f 6/15/5 5/16/5 2/17/5 1/18/5 
# 3 polygons - 2 triangles

