# 3ds Max Wavefront OBJ Exporter v0.97b - (c)2007 guruware
# File Created: 29.04.2015 18:20:45

mtllib ground_edge.mtl

#
# object water_bedding_straight_Cube_193_basecolors039
#

v  -4.0000 0.5000 -2.0000
v  -4.0000 1.0000 -2.5000
v  -4.0000 1.0000 -4.0000
v  -4.0000 0.0000 -2.0000
v  -4.0000 0.0000 -4.0000
v  4.0000 1.0000 -4.0000
v  4.0000 1.0000 -2.5000
v  4.0000 0.5000 -2.0000
v  4.0000 0.0000 -2.0000
v  4.0000 0.0000 -4.0000
# 10 vertices

vn -1.0000 -0.0000 0.0000
vn -1.0000 0.0000 0.0000
vn 1.0000 -0.0000 -0.0000
vn 1.0000 0.0000 -0.0000
vn -0.0000 -0.0000 -1.0000
vn -0.0000 0.0000 -1.0000
vn 0.0000 0.0000 1.0000
vn 0.0000 1.0000 -0.0000
vn 0.0000 0.7071 0.7071
# 9 vertex normals

vt 0.0577 0.9709 0.0000
vt 0.0564 0.9722 0.0000
vt 0.0524 0.9722 0.0000
vt 0.0577 0.9696 0.0000
vt 0.0524 0.9696 0.0000
vt 0.0316 0.9722 0.0000
vt 0.0276 0.9722 0.0000
vt 0.0263 0.9709 0.0000
vt 0.0263 0.9696 0.0000
vt 0.0316 0.9696 0.0000
vt 0.0054 0.9709 0.0000
vt 0.0054 0.9696 0.0000
vt 0.0263 0.9727 0.0000
vt 0.0263 0.9767 0.0000
vt 0.0054 0.9767 0.0000
vt 0.0054 0.9727 0.0000
# 16 texture coords

g water_bedding_straight_Cube_193_basecolors039
usemtl palette
s 2
f 1/1/1 2/2/1 3/3/1 4/4/1 
f 4/4/1 3/3/1 5/5/2 
f 6/6/3 7/7/3 8/8/4 9/9/4 
f 6/6/3 9/9/4 10/10/3 
s 4
f 5/5/5 3/3/5 6/6/5 10/10/6 
s 8
f 8/8/7 1/11/7 4/12/7 9/9/7 
s 1
f 7/13/8 6/14/8 3/15/8 2/16/8 
s 4
f 1/11/9 8/8/9 7/13/9 2/16/9 
# 6 polygons - 2 triangles

