# 3ds Max Wavefront OBJ Exporter v0.97b - (c)2007 guruware
# File Created: 27.04.2015 19:58:58

mtllib road_straight.mtl

#
# object road_straight_low_Cube_131_basecolors
#

v  4.0000 -0.0000 -3.0000
v  -4.0000 -0.0000 -3.0000
v  -4.0000 0.2000 -3.0000
v  4.0000 0.2000 -3.0000
v  4.0000 -0.0000 3.0000
v  4.0000 0.2000 3.0000
v  -4.0000 0.2000 3.0000
v  -4.0000 -0.0000 3.0000
v  -4.0000 -0.0000 2.0000
v  -4.0000 0.2000 2.0000
v  4.0000 0.2000 2.0000
v  4.0000 -0.0000 2.0000
v  4.0000 0.2000 -2.0000
v  4.0000 0.0000 -2.0000
v  -4.0000 0.2000 -2.0000
v  -4.0000 0.0000 -2.0000
v  4.0000 0.1000 -2.0000
v  -4.0000 0.1000 -2.0000
v  -4.0000 0.1000 2.0000
v  4.0000 0.1000 2.0000
# 20 vertices

vn 0.0000 0.0000 -1.0000
vn -0.0000 -0.0000 1.0000
vn 1.0000 -0.0000 -0.0000
vn -1.0000 0.0000 0.0000
vn -0.0000 1.0000 0.0000
vn -1.0000 0.0000 -0.0000
vn 1.0000 0.0000 0.0000
vn 0.0000 1.0000 -0.0000
vn 1.0000 -0.0000 0.0000
# 9 vertex normals

vt 0.2608 0.9435 0.0000
vt 0.3071 0.9435 0.0000
vt 0.3071 0.9447 0.0000
vt 0.2608 0.9447 0.0000
vt 0.3013 0.9435 0.0000
vt 0.3013 0.9447 0.0000
vt 0.2550 0.9447 0.0000
vt 0.2550 0.9435 0.0000
vt 0.3083 0.9910 0.0000
vt 0.3071 0.9910 0.0000
vt 0.3083 0.9447 0.0000
vt 0.3071 0.9968 0.0000
vt 0.3071 0.9505 0.0000
vt 0.3083 0.9505 0.0000
vt 0.3083 0.9968 0.0000
vt 0.3013 0.9910 0.0000
vt 0.3071 0.9922 0.0000
vt 0.3013 0.9922 0.0000
vt 0.2608 0.9505 0.0000
vt 0.3534 0.9581 0.0000
vt 0.3675 0.9581 0.0000
vt 0.3675 0.9652 0.0000
vt 0.3534 0.9652 0.0000
vt 0.3515 0.9911 0.0000
vt 0.3585 0.9911 0.0000
vt 0.3585 0.9913 0.0000
vt 0.3515 0.9913 0.0000
vt 0.3396 0.9943 0.0000
vt 0.3396 0.9941 0.0000
vt 0.3466 0.9941 0.0000
vt 0.3466 0.9943 0.0000
# 31 texture coords

g road_straight_low_Cube_131_basecolors
usemtl palette
s off
f 1/1/1 2/2/1 3/3/1 4/4/1 
f 5/5/2 6/6/2 7/7/2 8/8/2 
f 9/9/1 10/10/1 11/3/1 12/11/1 
f 4/4/3 13/7/3 14/8/3 1/1/3 
f 13/12/2 15/13/2 16/14/2 14/15/2 
f 7/16/4 10/10/4 9/17/4 8/18/4 
f 6/6/5 11/3/5 10/10/5 7/16/5 
f 3/3/6 2/11/6 16/14/6 15/13/6 
f 13/19/5 4/4/5 3/3/5 15/13/5 
f 5/5/7 12/2/7 11/3/7 6/6/7 
f 17/20/8 18/21/8 19/22/8 20/23/8 
f 19/24/6 18/25/6 16/26/6 9/27/6 
f 14/28/9 17/29/9 20/30/9 12/31/9 
# 13 polygons

