# 3ds Max Wavefront OBJ Exporter v0.97b - (c)2007 guruware
# File Created: 29.04.2015 18:02:36

mtllib tree-square.mtl

#
# object Object070
#

v  0.4000 0.6000 0.4000
v  -0.4000 0.6000 0.4000
v  -0.4000 0.6000 -0.4000
v  0.4000 0.6000 -0.4000
v  -0.1000 0.0000 0.1000
v  0.1000 0.0000 0.1000
v  0.1000 0.6000 0.1000
v  -0.1000 0.6000 0.1000
v  0.1000 0.0000 -0.1000
v  0.1000 0.6000 -0.1000
v  -0.1000 0.0000 -0.1000
v  -0.1000 0.6000 -0.1000
v  0.5000 1.5000 -0.5000
v  0.5000 1.5000 0.5000
v  0.5000 0.7000 0.5000
v  0.5000 0.7000 -0.5000
v  -0.5000 1.5000 0.5000
v  -0.5000 0.7000 0.5000
v  -0.5000 1.5000 -0.5000
v  -0.5000 0.7000 -0.5000
v  -0.4000 1.6000 -0.4000
v  -0.4000 1.6000 0.4000
v  0.4000 1.6000 0.4000
v  0.4000 1.6000 -0.4000
# 24 vertices

vn 0.0000 -1.0000 -0.0000
vn 0.0000 0.0000 1.0000
vn 1.0000 0.0000 -0.0000
vn 0.0000 0.0000 -1.0000
vn -1.0000 0.0000 -0.0000
vn -1.0000 0.0000 0.0000
vn 0.0000 1.0000 0.0000
vn 0.7071 0.7071 0.0000
vn 0.0000 0.7071 -0.7071
vn -0.7071 0.7071 0.0000
vn 0.0000 0.7071 0.7071
vn 0.7071 -0.7071 -0.0000
vn 0.0000 -0.7071 0.7071
vn -0.7071 -0.7071 0.0000
vn 0.0000 -0.7071 -0.7071
# 15 vertex normals

vt 0.0258 0.9756 0.0000
vt 0.0258 0.9772 0.0000
vt 0.0241 0.9772 0.0000
vt 0.0241 0.9756 0.0000
vt 0.0436 0.9548 0.0000
vt 0.0515 0.9548 0.0000
vt 0.0515 0.9786 0.0000
vt 0.0436 0.9786 0.0000
vt 0.0594 0.9548 0.0000
vt 0.0594 0.9786 0.0000
vt 0.0261 0.9597 0.0000
vt 0.0261 0.9593 0.0000
vt 0.0274 0.9593 0.0000
vt 0.0274 0.9597 0.0000
vt 0.0356 0.9548 0.0000
vt 0.0356 0.9786 0.0000
vt 0.0262 0.9629 0.0000
vt 0.0262 0.9650 0.0000
vt 0.0245 0.9650 0.0000
vt 0.0245 0.9629 0.0000
vt 0.0260 0.9723 0.0000
vt 0.0260 0.9744 0.0000
vt 0.0243 0.9744 0.0000
vt 0.0243 0.9723 0.0000
vt 0.0197 0.9662 0.0000
vt 0.0197 0.9682 0.0000
vt 0.0181 0.9682 0.0000
vt 0.0181 0.9662 0.0000
vt 0.0260 0.9691 0.0000
vt 0.0260 0.9712 0.0000
vt 0.0243 0.9712 0.0000
vt 0.0243 0.9691 0.0000
vt 0.0088 0.9798 0.0000
vt 0.0071 0.9798 0.0000
vt 0.0071 0.9781 0.0000
vt 0.0088 0.9781 0.0000
vt 0.0264 0.9631 0.0000
vt 0.0264 0.9648 0.0000
vt 0.0262 0.9693 0.0000
vt 0.0262 0.9710 0.0000
vt 0.0199 0.9664 0.0000
vt 0.0199 0.9680 0.0000
vt 0.0262 0.9725 0.0000
vt 0.0262 0.9742 0.0000
vt 0.0243 0.9631 0.0000
vt 0.0243 0.9648 0.0000
vt 0.0241 0.9725 0.0000
vt 0.0241 0.9742 0.0000
vt 0.0179 0.9664 0.0000
vt 0.0179 0.9680 0.0000
vt 0.0241 0.9693 0.0000
vt 0.0241 0.9710 0.0000
# 52 texture coords

g Object070
usemtl palette
s 1
f 1/1/1 2/2/1 3/3/1 4/4/1 
f 5/5/2 6/6/2 7/7/2 8/8/2 
s 2
f 6/6/3 9/9/3 10/10/3 7/7/3 
s 1
f 9/11/4 11/12/4 12/13/4 10/14/4 
s 2
f 11/15/5 5/5/5 8/8/5 12/16/5 
s 1
f 13/17/3 14/18/3 15/19/3 16/20/3 
s 2
f 14/21/2 17/22/2 18/23/2 15/24/2 
s 1
f 17/25/6 19/26/6 20/27/6 18/28/6 
s 2
f 19/29/4 13/30/4 16/31/4 20/32/4 
s 1
f 21/33/7 22/34/7 23/35/7 24/36/7 
s 4
f 13/17/8 24/37/8 23/38/8 14/18/8 
s 8
f 19/29/9 21/39/9 24/40/9 13/30/9 
s 4
f 17/25/10 22/41/10 21/42/10 19/26/10 
s 8
f 14/21/11 23/43/11 22/44/11 17/22/11 
s 4
f 4/45/12 16/20/12 15/19/12 1/46/12 
s 8
f 1/47/13 15/24/13 18/23/13 2/48/13 
s 4
f 2/49/14 18/28/14 20/27/14 3/50/14 
s 8
f 3/51/15 20/32/15 16/31/15 4/52/15 
# 18 polygons

