# 3ds Max Wavefront OBJ Exporter v0.97b - (c)2007 guruware
# File Created: 29.04.2015 18:01:27

mtllib tree-pine.mtl

#
# object Object050
#

v  -0.9000 0.8000 -0.9000
v  -0.5000 2.0000 -0.5000
v  0.5000 2.0000 -0.5000
v  0.9000 0.8000 -0.9000
v  -0.9000 0.8000 0.9000
v  -0.5000 2.0000 0.5000
v  0.9000 0.8000 0.9000
v  0.5000 2.0000 0.5000
v  -0.2500 0.0000 0.2500
v  0.2500 0.0000 0.2500
v  0.2500 0.8000 0.2500
v  -0.2500 0.8000 0.2500
v  0.2500 0.0000 -0.2500
v  0.2500 0.8000 -0.2500
v  -0.2500 0.0000 -0.2500
v  -0.2500 0.8000 -0.2500
v  -0.6000 3.4000 -0.6000
v  -0.0000 5.2000 -0.0000
v  0.6000 3.4000 -0.6000
v  -0.6000 3.4000 0.6000
v  0.6000 3.4000 0.6000
v  -0.4000 3.4000 -0.4000
v  0.4000 3.4000 -0.4000
v  0.7950 2.0000 -0.7950
v  -0.7950 2.0000 -0.7950
v  -0.4000 3.4000 0.4000
v  -0.7950 2.0000 0.7950
v  0.4000 3.4000 0.4000
v  0.7950 2.0000 0.7950
# 29 vertices

vn 0.0000 0.3162 -0.9487
vn -0.9487 0.3162 -0.0000
vn -0.0000 0.3162 0.9487
vn 0.0000 0.3162 0.9487
vn 0.9487 0.3162 0.0000
vn 0.0000 -1.0000 -0.0000
vn 0.0000 0.0000 1.0000
vn 1.0000 0.0000 -0.0000
vn 0.0000 0.0000 -1.0000
vn -1.0000 0.0000 -0.0000
vn 0.0000 0.2715 -0.9624
vn -0.9624 0.2715 0.0000
vn -0.9624 0.2715 -0.0000
vn -0.0000 0.2715 0.9624
vn 0.0000 0.2715 0.9624
vn 0.9624 0.2715 0.0000
vn -0.0000 -1.0000 -0.0000
# 17 vertex normals

vt 0.0240 0.9582 0.0000
vt 0.0248 0.9556 0.0000
vt 0.0269 0.9556 0.0000
vt 0.0277 0.9582 0.0000
vt 0.0154 0.9748 0.0000
vt 0.0162 0.9723 0.0000
vt 0.0183 0.9723 0.0000
vt 0.0191 0.9748 0.0000
vt 0.0154 0.9778 0.0000
vt 0.0162 0.9754 0.0000
vt 0.0183 0.9754 0.0000
vt 0.0191 0.9778 0.0000
vt 0.0199 0.9716 0.0000
vt 0.0207 0.9691 0.0000
vt 0.0228 0.9691 0.0000
vt 0.0236 0.9716 0.0000
vt 0.0108 0.9699 0.0000
vt 0.0071 0.9699 0.0000
vt 0.0071 0.9662 0.0000
vt 0.0108 0.9662 0.0000
vt 0.0436 0.9548 0.0000
vt 0.0515 0.9548 0.0000
vt 0.0515 0.9675 0.0000
vt 0.0436 0.9675 0.0000
vt 0.0594 0.9548 0.0000
vt 0.0594 0.9675 0.0000
vt 0.0154 0.9794 0.0000
vt 0.0154 0.9784 0.0000
vt 0.0171 0.9784 0.0000
vt 0.0171 0.9794 0.0000
vt 0.0356 0.9548 0.0000
vt 0.0356 0.9675 0.0000
vt 0.0199 0.9629 0.0000
vt 0.0236 0.9642 0.0000
vt 0.0199 0.9654 0.0000
vt 0.0197 0.9723 0.0000
vt 0.0234 0.9736 0.0000
vt 0.0197 0.9748 0.0000
vt 0.0154 0.9691 0.0000
vt 0.0191 0.9704 0.0000
vt 0.0154 0.9716 0.0000
vt 0.0197 0.9756 0.0000
vt 0.0234 0.9768 0.0000
vt 0.0197 0.9780 0.0000
vt 0.0079 0.9747 0.0000
vt 0.0096 0.9747 0.0000
vt 0.0104 0.9776 0.0000
vt 0.0071 0.9776 0.0000
vt 0.0039 0.9736 0.0000
vt 0.0056 0.9736 0.0000
vt 0.0064 0.9765 0.0000
vt 0.0031 0.9765 0.0000
vt 0.0124 0.9691 0.0000
vt 0.0140 0.9691 0.0000
vt 0.0148 0.9720 0.0000
vt 0.0116 0.9720 0.0000
vt 0.0039 0.9702 0.0000
vt 0.0056 0.9702 0.0000
vt 0.0064 0.9731 0.0000
vt 0.0031 0.9731 0.0000
vt 0.0031 0.9771 0.0000
vt 0.0056 0.9771 0.0000
vt 0.0056 0.9796 0.0000
vt 0.0031 0.9796 0.0000
vt 0.0104 0.9706 0.0000
vt 0.0104 0.9739 0.0000
vt 0.0071 0.9739 0.0000
vt 0.0071 0.9706 0.0000
# 68 texture coords

g Object050
usemtl palette
s 16
f 1/1/1 2/2/1 3/3/1 4/4/1 
s 2
f 5/5/2 6/6/2 2/7/2 1/8/2 
s 4
f 7/9/3 8/10/4 6/11/3 5/12/3 
s 8
f 4/13/5 3/14/5 8/15/5 7/16/5 
s 1
f 5/17/6 1/18/6 4/19/6 7/20/6 
f 9/21/7 10/22/7 11/23/7 12/24/7 
s 2
f 10/22/8 13/25/8 14/26/8 11/23/8 
s 1
f 13/27/9 15/28/9 16/29/9 14/30/9 
s 2
f 15/31/10 9/21/10 12/24/10 16/32/10 
s 16
f 17/33/1 18/34/1 19/35/1 
s 2
f 20/36/2 18/37/2 17/38/2 
s 4
f 21/39/4 18/40/4 20/41/4 
s 8
f 19/42/5 18/43/5 21/44/5 
s 16
f 22/45/11 23/46/11 24/47/11 25/48/11 
s 2
f 26/49/12 22/50/12 25/51/13 27/52/13 
s 4
f 28/53/14 26/54/15 27/55/14 29/56/14 
s 8
f 23/57/16 28/58/16 29/59/16 24/60/16 
s 1
f 21/61/6 20/62/6 17/63/6 19/64/6 
f 29/65/17 27/66/17 25/67/17 24/68/17 
# 15 polygons - 4 triangles

