# 3ds Max Wavefront OBJ Exporter v0.97b - (c)2007 guruware
# File Created: 29.04.2015 18:02:18

mtllib tree-pine-round-small.mtl

#
# object Object068
#

v  0.7500 0.8000 -0.0000
v  0.5303 0.8000 -0.5303
v  0.0000 3.5000 -0.0000
v  -0.0000 0.8000 -0.7500
v  -0.5303 0.8000 -0.5303
v  -0.7500 0.8000 0.0000
v  -0.5303 0.8000 0.5303
v  0.0000 0.8000 0.7500
v  0.5303 0.8000 0.5303
v  -0.1500 0.0000 0.1500
v  0.1500 0.0000 0.1500
v  0.1500 0.8000 0.1500
v  -0.1500 0.8000 0.1500
v  0.1500 0.0000 -0.1500
v  0.1500 0.8000 -0.1500
v  -0.1500 0.0000 -0.1500
v  -0.1500 0.8000 -0.1500
# 17 vertices

vn 0.9635 0.2676 -0.0000
vn 0.6813 0.2676 -0.6813
vn -0.0000 1.0000 0.0000
vn -0.0000 0.2676 -0.9635
vn -0.6813 0.2676 -0.6813
vn -0.9635 0.2676 0.0000
vn -0.6813 0.2676 0.6813
vn -0.0000 0.2676 0.9635
vn 0.6813 0.2676 0.6813
vn 0.0000 -1.0000 -0.0000
vn 0.0000 0.0000 1.0000
vn 1.0000 0.0000 -0.0000
vn 0.0000 0.0000 -1.0000
vn -1.0000 0.0000 -0.0000
# 14 vertex normals

vt 0.0135 0.9604 0.0000
vt 0.0135 0.9593 0.0000
vt 0.0191 0.9604 0.0000
vt 0.0253 0.9593 0.0000
vt 0.0256 0.9604 0.0000
vt 0.0198 0.9612 0.0000
vt 0.0256 0.9613 0.0000
vt 0.0136 0.9651 0.0000
vt 0.0136 0.9640 0.0000
vt 0.0191 0.9640 0.0000
vt 0.0136 0.9629 0.0000
vt 0.0116 0.9684 0.0000
vt 0.0116 0.9673 0.0000
vt 0.0171 0.9673 0.0000
vt 0.0116 0.9662 0.0000
vt 0.0135 0.9615 0.0000
vt 0.0116 0.9746 0.0000
vt 0.0116 0.9734 0.0000
vt 0.0124 0.9726 0.0000
vt 0.0136 0.9754 0.0000
vt 0.0136 0.9726 0.0000
vt 0.0144 0.9734 0.0000
vt 0.0144 0.9746 0.0000
vt 0.0124 0.9754 0.0000
vt 0.0436 0.9548 0.0000
vt 0.0515 0.9548 0.0000
vt 0.0515 0.9759 0.0000
vt 0.0436 0.9759 0.0000
vt 0.0594 0.9548 0.0000
vt 0.0594 0.9759 0.0000
vt 0.0197 0.9794 0.0000
vt 0.0197 0.9788 0.0000
vt 0.0213 0.9788 0.0000
vt 0.0213 0.9794 0.0000
vt 0.0356 0.9548 0.0000
vt 0.0356 0.9759 0.0000
# 36 texture coords

g Object068
usemtl palette
s 8
f 1/1/1 2/2/2 3/3/3 
f 2/4/2 4/5/4 3/6/3 
f 4/5/4 5/7/5 3/6/3 
f 5/8/5 6/9/6 3/10/3 
f 6/9/6 7/11/7 3/10/3 
f 7/12/7 8/13/8 3/14/3 
f 8/13/8 9/15/9 3/14/3 
f 9/16/9 1/1/1 3/3/3 
s 1
f 8/17/10 7/18/10 6/19/10 1/20/10 
f 6/19/10 5/21/10 4/22/10 1/20/10 
f 4/22/10 2/23/10 1/20/10 
f 9/24/10 8/17/10 1/20/10 
s 8
f 10/25/11 11/26/11 12/27/11 13/28/11 
s 16
f 11/26/12 14/29/12 15/30/12 12/27/12 
s 32
f 14/31/13 16/32/13 17/33/13 15/34/13 
s 64
f 16/35/14 10/25/14 13/28/14 17/36/14 
# 6 polygons - 10 triangles

